<?xml version="1.0" encoding="UTF-8"?>
<!DOCTYPE svg  PUBLIC '-//W3C//DTD SVG 1.1//EN'  'http://www.w3.org/Graphics/SVG/1.1/DTD/svg11.dtd'>
<svg width="800px" height="800px" enable-background="new 0 0 24 24" fill="#ffffff" version="1.1" viewBox="0 0 24 24" xml:space="preserve" xmlns="http://www.w3.org/2000/svg" xmlns:i="&amp;ns_ai;" xmlns:x="&amp;ns_extend;">





 <metadata> <a0:sfw xmlns="&amp;ns_sfw;" xmlns:a0="http://www.w3.org/2000/svg"> <a0:slices> </a0:slices> <a0:slicesourcebounds x="0" y="-984" width="505" height="984" bottomleftorigin="true"> </a0:slicesourcebounds> </a0:sfw> </metadata>    <path d="M20,20h-4c-0.6,0-1-0.4-1-1s0.4-1,1-1h4c1.1,0,2-0.9,2-2V4c0-1.1-0.9-2-2-2H4C2.9,2,2,2.9,2,4v12c0,1.1,0.9,2,2,2h4 c0.6,0,1,0.4,1,1s-0.4,1-1,1H4c-2.2,0-4-1.8-4-4V4c0-2.2,1.8-4,4-4h16c2.2,0,4,1.8,4,4v12C24,18.2,22.2,20,20,20z"/>     <path d="m12 24c-0.3 0-0.5-0.1-0.7-0.3l-4-4c-0.4-0.4-0.4-1 0-1.4s1-0.4 1.4 0l3.3 3.3 3.3-3.3c0.4-0.4 1-0.4 1.4 0s0.4 1 0 1.4l-4 4c-0.2 0.2-0.4 0.3-0.7 0.3z"/>     <path d="M18,7H6C5.4,7,5,6.6,5,6s0.4-1,1-1h12c0.6,0,1,0.4,1,1S18.6,7,18,7z"/>     <path d="m13 11h-7c-0.6 0-1-0.4-1-1s0.4-1 1-1h7c0.6 0 1 0.4 1 1s-0.4 1-1 1z"/>     <path d="m16 15h-10c-0.6 0-1-0.4-1-1s0.4-1 1-1h10c0.6 0 1 0.4 1 1s-0.4 1-1 1z"/>    

</svg>
